# xmcd
#
# Track frame offsets: 
#        150
#        21616
#        42003
#        64258
#        87509
#        108854
#        127846
#        155131
#        176966
#        205852
#        228726
#        248800
#        282179
#        301424
#        338223
#
# Disc length: 4757 seconds
#
# Revision: 0
# Processed by: cddbd v1.5.2PL0 Copyright (c) Steve Scherf et al.
# Submitted via: ExactAudioCopy v1.1
#
DISCID=da12930f
DTITLE=Meli'sa Morgan - Good Love (Expanded Edition)
DYEAR=1987
DGENRE=Soul
TTITLE0=If You Can Do It: I Can Too!!
TTITLE1=Here Comes The Night
TTITLE2=Just For Your Touch
TTITLE3=Good Love
TTITLE4=Love Changes (Duet With Kashif)
TTITLE5=Think It Over
TTITLE6=I'll Love No More
TTITLE7=I Still Think About You
TTITLE8=You're All I Got
TTITLE9=If You Can Do It: I Can Too!! (Club House Mix)
TTITLE10=If You Can Do It: I Can Too!! (Dub Version)
TTITLE11=Good Love (Extended Remix)
TTITLE12=Good Love (Remix Edit)
TTITLE13=Here Comes The Night (Special Club Opus)
TTITLE14=Here Comes The Night (Single Edit)
EXTD=
EXTT0=
EXTT1=
EXTT2=
EXTT3=
EXTT4=
EXTT5=
EXTT6=
EXTT7=
EXTT8=
EXTT9=
EXTT10=
EXTT11=
EXTT12=
EXTT13=
EXTT14=
PLAYORDER=
